<svg width="48" height="65" xmlns="http://www.w3.org/2000/svg"><g fill-rule="nonzero" fill="none"><rect fill="#2545B4" y="5.909" width="47.273" height="59.091" rx="6"/><rect fill="#02C3FF" x="11.818" y="2.955" width="23.636" height="8.864" rx="3"/><rect fill="#02C3FF" x="18.712" width="9.848" height="8.864" rx="3"/><rect fill="#02C3FF" x="20.682" y="23.636" width="20.682" height="2.955" rx="1"/><rect fill="#02C3FF" x="20.682" y="42.348" width="20.682" height="2.955" rx="1"/><rect fill="#FFF" x="20.682" y="30.53" width="9.848" height="2.955" rx="1"/><rect fill="#FFF" x="20.682" y="49.242" width="9.848" height="2.955" rx="1"/><path d="M16.857 23.948l.542.502a1 1 0 01.01 1.455l-6.611 6.328a1 1 0 01-1.384 0l-3.156-3.027a1 1 0 010-1.443l.449-.43a1 1 0 011.364-.02l2.035 1.844 5.376-5.196a1 1 0 011.375-.013zM16.857 42.66l.542.502a1 1 0 01.01 1.456l-6.611 6.327a1 1 0 01-1.384 0l-3.156-3.027a1 1 0 010-1.443l.449-.43a1 1 0 011.364-.02l2.035 1.844 5.376-5.196a1 1 0 011.375-.013z" fill="#FFF"/></g></svg>