<svg width="71" height="65" xmlns="http://www.w3.org/2000/svg" xmlns:xlink="http://www.w3.org/1999/xlink"><defs><rect id="a" x=".558" y="0" width="40.625" height="27.857" rx="1"/></defs><g fill="none" fill-rule="evenodd"><g transform="rotate(19 6.057 50.219)"><g transform="translate(.603)"><mask id="b" fill="#fff"><use xlink:href="#a"/></mask><use fill="#02C3FF" fill-rule="nonzero" xlink:href="#a"/><rect fill="#2545B4" fill-rule="nonzero" mask="url(#b)" x="-1.161" y="5.543" width="48.75" height="3.482" rx="1"/></g><rect fill="#FFF" fill-rule="nonzero" x="5.246" y="11.347" width="18.571" height="3.482" rx="1"/></g><path d="M6 17.41h55.321a6 6 0 016 6V59a6 6 0 01-6 6H6a6 6 0 01-6-6V23.41a6 6 0 016-6z" fill="#2545B4" fill-rule="nonzero"/><g transform="translate(49.91 36.749)" fill-rule="nonzero"><path d="M5.223 0h12.67a3 3 0 013 3v4.446a3 3 0 01-3 3H5.223A5.223 5.223 0 015.223 0z" fill="#02C3FF"/><rect fill="#FFF" x="2.321" y="2.321" width="5.804" height="5.804" rx="2.5"/></g></g></svg>