<svg width="65" height="65" xmlns="http://www.w3.org/2000/svg"><g fill-rule="nonzero" fill="none"><g><circle fill="#2545B4" cx="20.764" cy="20.764" r="20.764"/><rect fill="#02C3FF" x="9.931" y="16.25" width="21.667" height="2.708" rx="1"/><rect fill="#FFF" x="9.931" y="22.569" width="10.833" height="2.708" rx="1"/><path fill="#2545B4" d="M7.222 34.306l9.93 6.319-9.93 6.32z"/></g><g transform="translate(23.472 23.472)"><circle fill="#02C3FF" cx="20.764" cy="20.764" r="20.764"/><path d="M28.153 23.485c-.783-.773-1.761-.773-2.539 0-.594.588-1.187 1.177-1.77 1.775-.16.165-.295.2-.49.09-.383-.21-.792-.38-1.162-.609-1.72-1.082-3.162-2.473-4.438-4.04-.634-.777-1.198-1.61-1.592-2.548-.08-.19-.064-.314.09-.469.594-.573 1.172-1.162 1.756-1.75.813-.818.813-1.776-.005-2.599-.464-.469-.928-.928-1.392-1.396-.478-.48-.952-.963-1.436-1.437-.783-.763-1.76-.763-2.539.005-.598.589-1.172 1.192-1.78 1.77-.564.534-.848 1.188-.908 1.95-.095 1.243.21 2.415.638 3.557.878 2.364 2.215 4.464 3.836 6.389 2.19 2.603 4.803 4.663 7.86 6.15 1.377.668 2.803 1.181 4.354 1.266 1.068.06 1.995-.21 2.739-1.042.508-.569 1.082-1.087 1.62-1.631.799-.808.804-1.786.01-2.584-.947-.952-1.9-1.9-2.852-2.847z" stroke="#2545B4" stroke-width="2.5"/></g></g></svg>