<svg width="72" height="65" xmlns="http://www.w3.org/2000/svg"><g fill-rule="nonzero" fill="none"><path d="M7 0h58a4 4 0 014 4v18H3V4a4 4 0 014-4z" fill="#2545B4"/><rect fill="#02C3FF" y="22" width="72" height="21" rx="4"/><rect fill="#02C3FF" x="9" y="13" width="48" height="3" rx="1.5"/><path d="M3 43h66v18a4 4 0 01-4 4H7a4 4 0 01-4-4V43z" fill="#2545B4"/><rect fill="#FFF" x="9" y="49" width="30" height="3" rx="1.5"/><rect fill="#FFF" x="9" y="6" width="30" height="3" rx="1.5"/><rect fill="#2545B4" x="6" y="28" width="36" height="3" rx="1.5"/><rect fill="#02C3FF" x="9" y="56" width="54" height="3" rx="1.5"/><rect fill="#2545B4" x="6" y="34" width="60" height="3" rx="1.5"/></g></svg>