<svg width="255" height="30" viewBox="0 0 255 30" xmlns="http://www.w3.org/2000/svg"><g fill="none"><path d="M47.68 9.84V6.96h-3.24v2.88h3.24zM47.56 24V11.76h-3V24h3zm6.12 0v-7.08c0-1.56 1.08-2.64 2.64-2.64s2.64 1.08 2.64 2.64V24h3v-7.32c0-3.12-2.04-5.16-4.8-5.16-1.152 0-1.992.36-2.544.72-.312.216-.6.456-.816.72h-.12l-.24-1.2h-2.76V24h3zm18 0v-2.64h-1.92c-.552 0-.84-.288-.84-.84v-5.88h2.76v-2.88h-2.76V8.28h-3v3.48H64v2.88h1.92v6.48c0 1.824 1.08 2.88 3.12 2.88h2.64zm8.28.24c3.864 0 5.376-2.88 5.64-3.84h-3.12c-.24.504-1.104 1.32-2.52 1.32-1.704 0-2.976-1.176-3.24-2.88h9.12l.048-.336c.024-.216.072-.504.072-.864 0-3.48-2.64-6.12-6-6.12-3.6 0-6.24 2.64-6.24 6.36s2.64 6.36 6.24 6.36zm3-7.44h-6.24c.36-1.56 1.416-2.76 3.24-2.76 1.704 0 2.736 1.2 3 2.76zm8.52 7.2v-7.08c0-1.512.768-2.28 2.28-2.28h2.16v-2.88h-2.4c-.744 0-1.272.288-1.632.552a2.747 2.747 0 00-.528.528h-.12L91 11.76h-2.52V24h3zm9.24 0v-7.08c0-1.56 1.08-2.64 2.64-2.64s2.64 1.08 2.64 2.64V24h3v-7.32c0-3.12-2.04-5.16-4.8-5.16-1.152 0-1.992.36-2.544.72-.312.216-.6.456-.816.72h-.12l-.24-1.2h-2.76V24h3zm16.92.24c3.864 0 5.376-2.88 5.64-3.84h-3.12c-.24.504-1.104 1.32-2.52 1.32-1.704 0-2.976-1.176-3.24-2.88h9.12l.048-.336c.024-.216.072-.504.072-.864 0-3.48-2.64-6.12-6-6.12-3.6 0-6.24 2.64-6.24 6.36s2.64 6.36 6.24 6.36zm3-7.44h-6.24c.36-1.56 1.416-2.76 3.24-2.76 1.704 0 2.736 1.2 3 2.76zm12.24 7.2v-2.64h-1.92c-.552 0-.84-.288-.84-.84v-5.88h2.76v-2.88h-2.76V8.28h-3v3.48h-1.92v2.88h1.92v6.48c0 1.824 1.08 2.88 3.12 2.88h2.64zm9.36 0l4.2-12.24h-3.12l-2.88 8.52h-.48l-2.88-8.52h-3.12l4.2 12.24h4.08zm11.4.24c3.864 0 5.376-2.88 5.64-3.84h-3.12c-.24.504-1.104 1.32-2.52 1.32-1.704 0-2.976-1.176-3.24-2.88h9.12l.048-.336c.024-.216.072-.504.072-.864 0-3.48-2.64-6.12-6-6.12-3.6 0-6.24 2.64-6.24 6.36s2.64 6.36 6.24 6.36zm3-7.44h-6.24c.36-1.56 1.416-2.76 3.24-2.76 1.704 0 2.736 1.2 3 2.76zm8.52 7.2v-7.08c0-1.512.768-2.28 2.28-2.28h2.16v-2.88h-2.4c-.744 0-1.272.288-1.632.552a2.747 2.747 0 00-.528.528h-.12l-.24-1.08h-2.52V24h3zm11.76 5.04c3.6 0 5.88-2.16 5.88-5.376V11.76h-2.64l-.24 1.2h-.12a3.578 3.578 0 00-.84-.72c-.576-.36-1.416-.72-2.64-.72-3.144 0-5.52 2.4-5.52 5.88s2.376 5.88 5.52 5.88c1.128 0 1.992-.288 2.544-.648.312-.192.6-.408.816-.672h.12v1.68c0 1.704-1.176 2.76-2.88 2.76-1.92 0-2.496-1.2-2.64-1.8h-3.12c0 .84.96 4.44 5.76 4.44zm-.12-8.4c-1.68 0-3-1.32-3-3.24 0-1.92 1.32-3.24 3-3.24s3 1.32 3 3.24c0 1.92-1.32 3.24-3 3.24zm14.76 3.6c3.864 0 5.376-2.88 5.64-3.84h-3.12c-.24.504-1.104 1.32-2.52 1.32-1.704 0-2.976-1.176-3.24-2.88h9.12l.048-.336c.024-.216.072-.504.072-.864 0-3.48-2.64-6.12-6-6.12-3.6 0-6.24 2.64-6.24 6.36s2.64 6.36 6.24 6.36zm3-7.44h-6.24c.36-1.56 1.416-2.76 3.24-2.76 1.704 0 2.736 1.2 3 2.76zm8.64 7.2V7.2h-3V24h3zm6.36-14.16V6.96h-3.24v2.88h3.24zM209.44 24V11.76h-3V24h3zm6.24-14.16V6.96h-3.24v2.88h3.24zm-3.24 18.96c1.92 0 3.12-1.176 3.12-2.88V11.76h-3V25.2c0 .552-.288.84-.84.84h-1.92v2.76h2.64zm9.36-4.8v-5.76l4.8 5.76h3.48l-5.28-6.24 5.04-6h-3.48l-4.56 5.52V7.2h-3V24h3zm12.72 0v-3.36h-3.36V24h3.36zm6 0v-7.08c0-1.56 1.08-2.64 2.64-2.64s2.64 1.08 2.64 2.64V24h3v-7.32c0-3.12-2.04-5.16-4.8-5.16-1.152 0-1.992.36-2.544.72-.312.216-.6.456-.816.72h-.12l-.24-1.2h-2.76V24h3zm14.4 0V7.2h-3V24h3z" fill="#121E57"/><path d="M18.16 20.208a4.896 4.896 0 100 9.792 4.896 4.896 0 000-9.792zm0 3.383a1.513 1.513 0 110 3.026 1.513 1.513 0 010-3.026z" fill="#315BE7"/><path d="M18.168 0c6.701 0 12.99 2.64 17.658 7.26.643.637.67 1.665.067 2.335l-.022.024-5.082 5.425a1.691 1.691 0 01-2.417.052l-.023-.023c-2.697-2.744-6.291-4.301-10.166-4.301A14.195 14.195 0 007.974 15.07a1.691 1.691 0 11-2.417-2.366 17.577 17.577 0 0112.626-5.315c4.173 0 8.09 1.462 11.226 4.068l.059.05 2.767-2.954-.042-.036a21.628 21.628 0 00-13.852-5.134h-.173A21.643 21.643 0 002.882 9.672a1.691 1.691 0 11-2.38-2.403A25.025 25.025 0 0118.167 0z" fill="#02C3FF"/><path d="M5.522 12.741a1.691 1.691 0 012.365-.12l.024.022 3.982 3.668.011-.008a11.288 11.288 0 016.173-1.881h.083c2.793 0 5.432 1.016 7.486 2.824a1.691 1.691 0 01-2.21 2.56l-.025-.021a7.911 7.911 0 00-5.25-1.98 7.91 7.91 0 00-5.252 1.98c-.641.565-1.6.562-2.238-.001l-.026-.024-5.025-4.629a1.691 1.691 0 01-.098-2.39z" fill="#315BE7"/></g></svg>