<?xml version="1.0" encoding="utf-8"?>
<!-- Generator: Adobe Illustrator 15.1.0, SVG Export Plug-In . SVG Version: 6.00 Build 0)  -->
<!DOCTYPE svg PUBLIC "-//W3C//DTD SVG 1.1//EN" "http://www.w3.org/Graphics/SVG/1.1/DTD/svg11.dtd">
<svg version="1.1" id="Layer_1" xmlns="http://www.w3.org/2000/svg" xmlns:xlink="http://www.w3.org/1999/xlink" x="0px" y="0px"
	 width="120px" height="120px" viewBox="0 0 120 120" enable-background="new 0 0 120 120" xml:space="preserve">
<circle fill="#0065B1" cx="60" cy="60" r="59.222"/>
<g>
	<path fill="#FFFFFF" d="M34.671,27.085c-0.316,1.222-0.987,2.379-2.018,3.331c-2.856,2.635-6.871,2.396-9.298-0.234l-0.024-0.026
		c-2.428-2.632-2.34-6.702,0.516-9.338c2.855-2.635,6.87-2.397,9.296,0.234l0.025,0.026c0.891,0.966,1.454,2.16,1.632,3.414
		l1.696-0.071l0.034,2.637L34.671,27.085z M31.933,27.141l-2.691,0.107l-0.046-2.65l2.79-0.028c-0.182-0.542-0.493-1.038-0.92-1.501
		l-0.025-0.026c-1.463-1.587-3.848-1.835-5.487-0.322c-1.639,1.512-1.581,3.857-0.118,5.444l0.025,0.026
		c1.464,1.587,3.848,1.834,5.487,0.323C31.397,28.099,31.722,27.628,31.933,27.141z"/>
	<path fill="#FFFFFF" d="M37.694,23.654l0.667-2.466c1.421,0.377,2.748,0.419,4.055-0.181c1.03-0.474,1.463-1.167,1.155-1.838
		l-0.015-0.032c-0.293-0.638-0.836-0.784-2.974-0.395c-2.575,0.471-4.356,0.517-5.4-1.755l-0.016-0.032
		c-0.954-2.076,0.082-4.216,2.419-5.291c1.667-0.767,3.33-0.897,4.919-0.499l-0.435,2.497c-1.337-0.237-2.53-0.203-3.495,0.24
		c-0.964,0.442-1.269,1.118-1.012,1.674l0.015,0.032c0.346,0.751,0.949,0.771,3.159,0.369c2.6-0.462,4.291-0.23,5.208,1.764
		l0.015,0.033c1.045,2.272-0.101,4.343-2.569,5.479C41.657,24.049,39.63,24.248,37.694,23.654z"/>
	<path fill="#FFFFFF" d="M47.599,8.091l2.746-0.369l0.664,4.939l5.064-0.681l-0.665-4.939l2.747-0.368l1.678,12.48l-2.746,0.37
		l-0.673-5.011l-5.064,0.682l0.674,5.009l-2.747,0.37L47.599,8.091z"/>
	<path fill="#FFFFFF" d="M63.047,12.868l0.008-0.035c0.729-3.505,4.095-5.799,7.897-5.005c3.806,0.794,5.942,4.199,5.212,7.703
		l-0.008,0.036c-0.73,3.504-4.094,5.798-7.899,5.004C64.453,19.777,62.314,16.372,63.047,12.868z M73.313,15.01l0.008-0.036
		c0.44-2.113-0.741-4.198-2.926-4.653c-2.184-0.456-4.059,0.954-4.5,3.067l-0.007,0.036c-0.44,2.113,0.742,4.198,2.927,4.653
		C70.998,18.533,72.874,17.123,73.313,15.01z"/>
	<path fill="#FFFFFF" d="M82.908,11.884l4.44,2.599c2.595,1.517,3.263,3.972,1.964,6.192l-0.019,0.032
		c-1.472,2.515-4.191,2.675-6.63,1.249l-1.817-1.063l-1.908,3.26l-2.39-1.399L82.908,11.884z M83.986,19.873
		c1.196,0.7,2.312,0.395,2.857-0.538l0.018-0.03c0.627-1.072,0.218-2.083-0.978-2.782l-1.847-1.081l-1.945,3.323L83.986,19.873z"/>
	<path fill="#FFFFFF" d="M86.924,26.935l2.548-0.182c0.113,1.465,0.511,2.732,1.509,3.768c0.787,0.816,1.586,0.996,2.116,0.484
		l0.026-0.025c0.505-0.486,0.464-1.048-0.609-2.938c-1.294-2.275-1.926-3.94-0.124-5.677l0.025-0.026
		c1.644-1.585,4.007-1.313,5.791,0.539c1.274,1.321,1.947,2.847,2.096,4.479l-2.503,0.413c-0.217-1.34-0.642-2.456-1.378-3.219
		c-0.737-0.764-1.474-0.829-1.914-0.404l-0.025,0.025c-0.596,0.574-0.416,1.15,0.693,3.104c1.294,2.302,1.633,3.975,0.053,5.498
		L95.2,32.799c-1.799,1.736-4.133,1.337-6.019-0.619C87.858,30.808,87.002,28.959,86.924,26.935z"/>
</g>
<g>
	<path fill="#FFFFFF" d="M28.029,89.754l2.535,2.364c1.528,1.423,1.778,3.173,0.533,4.509l-0.018,0.02
		c-1.361,1.46-3.283,1.079-4.725-0.263l-1.646-1.534l-2.227,2.39l-0.765-0.712L28.029,89.754z M27.032,95.713
		c1.122,1.044,2.417,1.132,3.246,0.241l0.018-0.02c0.901-0.969,0.645-2.146-0.449-3.165l-1.712-1.597l-2.777,2.98L27.032,95.713z"/>
	<path fill="#FFFFFF" d="M38.328,97.722l0.854,0.476l-0.865,10.198l-0.981-0.549l0.247-2.663l-4.399-2.46l-2.152,1.601l-0.935-0.523
		L38.328,97.722z M37.683,104.162l0.467-5.146L34,102.104L37.683,104.162z"/>
	<path fill="#FFFFFF" d="M46.025,101.396l3.863,0.963c1.103,0.274,1.906,0.828,2.33,1.532c0.328,0.544,0.428,1.238,0.252,1.944
		l-0.006,0.024c-0.37,1.49-1.614,2.106-3.09,2.013l1.847,4.357l-1.245-0.312l-1.737-4.137l-0.026-0.008l-2.541-0.632l-0.868,3.491
		l-1.014-0.253L46.025,101.396z M48.658,106.918c1.348,0.334,2.482-0.119,2.77-1.273l0.006-0.027
		c0.276-1.104-0.406-1.983-1.856-2.343l-2.772-0.69l-0.906,3.646L48.658,106.918z"/>
	<path fill="#FFFFFF" d="M59.435,104.493h-3.107v-0.967H63.6v0.967h-3.107l0.001,8.29l-1.058,0.002L59.435,104.493z"/>
	<path fill="#FFFFFF" d="M67.175,103.106l0.948-0.246l7.513,5.714l-1.868-7.183l0.983-0.256l2.332,8.959l-0.807,0.212l-7.696-5.843
		l1.911,7.346l-0.984,0.256L67.175,103.106z"/>
	<path fill="#FFFFFF" d="M78.624,99.459l5.825-3.291l0.469,0.83l-4.917,2.778l1.556,2.751l4.398-2.486l0.468,0.83l-4.397,2.484
		l1.593,2.821l4.975-2.81l0.468,0.828l-5.882,3.325L78.624,99.459z"/>
	<path fill="#FFFFFF" d="M87.479,93.98l2.836-2.794c0.81-0.799,1.701-1.193,2.524-1.188c0.636,0.006,1.279,0.279,1.789,0.799
		l0.02,0.02c1.076,1.093,0.952,2.475,0.103,3.685l4.681,0.699l-0.915,0.9l-4.436-0.681l-0.019,0.021l-1.866,1.836l2.524,2.563
		l-0.744,0.732L87.479,93.98z M93.562,94.616c0.989-0.976,1.195-2.182,0.36-3.029l-0.02-0.018c-0.797-0.811-1.902-0.688-2.967,0.36
		l-2.034,2.004l2.635,2.678L93.562,94.616z"/>
</g>
<polygon fill="#FFFFFF" points="14.528,38.31 16.765,41.802 20.82,40.916 18.189,44.125 20.285,47.707 16.421,46.197 13.663,49.294 
	13.905,45.153 10.106,43.489 14.118,42.439 "/>
<polygon fill="#FFFFFF" points="13.649,67.916 16.046,71.301 20.056,70.226 17.579,73.555 19.838,77.032 15.908,75.707 
	13.298,78.928 13.346,74.779 9.473,73.296 13.432,72.06 "/>
<polygon fill="#FFFFFF" points="11.309,53.237 13.186,56.937 17.308,56.46 14.372,59.391 16.098,63.162 12.404,61.274 9.35,64.082 
	10.006,59.982 6.391,57.948 10.488,57.303 "/>
<polygon fill="#FFFFFF" points="104.857,38.31 102.621,41.802 98.566,40.916 101.195,44.125 99.1,47.707 102.965,46.197 
	105.722,49.294 105.48,45.153 109.28,43.489 105.267,42.439 "/>
<polygon fill="#FFFFFF" points="105.736,67.916 103.338,71.299 99.329,70.226 101.807,73.553 99.547,77.032 103.478,75.705 
	106.086,78.928 106.039,74.779 109.912,73.296 105.954,72.06 "/>
<polygon fill="#FFFFFF" points="108.076,53.237 106.199,56.937 102.076,56.46 105.013,59.391 103.288,63.162 106.98,61.274 
	110.035,64.082 109.38,59.982 112.994,57.948 108.897,57.303 "/>
<circle fill="#6FBE45" cx="60" cy="60" r="36.733"/>
<path fill="#FFFFFF" d="M75.94,72.841c2.386-1.438,3.983-4.054,3.983-7.044V49.95c0-4.539-3.68-8.217-8.219-8.217H47.993
	c-4.539,0-8.219,3.678-8.219,8.217v15.847c0,4.538,3.68,8.218,8.219,8.218h20.456l4.025,4.025h8.665L75.94,72.841z M73.797,65.422
	c0,1.362-1.105,2.467-2.467,2.467H48.458c-1.36,0-2.465-1.104-2.465-2.467V50.051c0-1.363,1.105-2.465,2.465-2.465H71.33
	c1.361,0,2.467,1.103,2.467,2.465V65.422z"/>
</svg>
