<svg width="149" height="48" xmlns="http://www.w3.org/2000/svg"><g fill-rule="nonzero" fill="none"><g fill="#1E1E1E"><path d="M50.64 11.628h1.96v1.584h1.41v1.613H52.6v2.908c0 1.123.345 1.354 1.108 1.354.12.002.24-.003.36-.015v1.7c-.28.053-.565.077-.85.071-1.8 0-2.592-1.008-2.592-3.052v-2.966h-.792v-1.613h.807v-1.584zM62.045 16.394v4.349h-1.973v-4.58c0-.834-.576-1.353-1.253-1.353-.835 0-1.368.605-1.368 1.411v4.522h-1.987V10.332h1.987v3.758a2.321 2.321 0 011.987-1.065c2.16 0 2.607 1.77 2.607 3.37zM63.714 17.56v-4.348h1.987v4.579c0 .835.576 1.353 1.253 1.353.82 0 1.34-.604 1.34-1.41v-4.522h1.986v7.53h-1.944v-.877a2.375 2.375 0 01-2.016 1.065c-2.145 0-2.606-1.771-2.606-3.37zM72.972 10.26a1.138 1.138 0 11-1.152 1.138 1.129 1.129 0 011.152-1.138zm-.98 2.952h1.988v7.53h-1.987v-7.53zM75.261 19.533l1.166-1.037c.416.53 1.056.833 1.728.821.562 0 .922-.244.922-.676 0-1.152-3.557-.706-3.557-3.384 0-1.397 1.195-2.232 2.736-2.232 1.426 0 2.218.749 2.577 1.339l-1.31.979a1.702 1.702 0 00-1.353-.72c-.461 0-.778.23-.778.605 0 1.195 3.571.62 3.571 3.312 0 1.469-1.267 2.39-2.894 2.39-1.483 0-2.405-.749-2.808-1.397zM87.428 15.919l-1.397 4.824h-2.217l-2.247-7.531h2.16l1.325 5.342 1.44-5.342h1.872l1.425 5.342 1.34-5.342h2.16l-2.261 7.53H88.81zM95.36 10.26a1.138 1.138 0 11-1.151 1.138 1.129 1.129 0 011.152-1.138zm-.979 2.952h1.987v7.53h-1.987v-7.53zM104.72 16.394v4.349h-1.987v-4.58c0-.834-.576-1.353-1.253-1.353-.82 0-1.34.605-1.34 1.411v4.522h-1.986v-7.531h1.944v.878a2.376 2.376 0 012.015-1.065c2.146 0 2.607 1.77 2.607 3.37zM106.432 10.332h1.988v6.048l2.419-3.168h2.232l-2.65 3.413 2.851 4.118h-2.333l-2.52-3.888v3.888h-1.987zM117.591 13.025c2.333 0 3.658 1.555 3.658 4.017.002.144-.003.288-.015.432h-5.299c.043 1.008.85 1.728 1.958 1.728a2.2 2.2 0 001.83-.921l1.31.993c-.289.533-1.297 1.656-3.168 1.656-2.42 0-3.96-1.67-3.96-3.93 0-2.276 1.54-3.975 3.686-3.975zm1.642 3.153a1.538 1.538 0 00-1.613-1.526c-.936 0-1.54.662-1.627 1.526h3.24zM122.572 10.332h1.988v10.41h-1.988z"/></g><path d="M21.583 0L.798 12v24l20.785 12 20.785-12V12L21.583 0zm18.565 34.719L22.693 44.796V24.641l17.455-10.078v20.156zM20.473 44.796L3.018 34.72V14.563L20.473 24.64v20.155zm1.11-22.077L4.128 12.64 21.583 2.563 39.038 12.64 21.583 22.719z" fill="#1E1E1E"/><path fill="#BDEA18" d="M40.148 14.563L22.693 24.641v20.155L40.148 34.72z"/><path fill="#FC3F4D" d="M3.018 34.719l17.455 10.077V24.641L3.018 14.563z"/><path fill="#FFF" d="M4.128 12.64l17.455 10.078 17.455-10.077L21.583 2.563z"/><g fill="#1E1E1E"><path d="M50.41 25.858h1.06v3.847a2.883 2.883 0 012.465-1.3c1.97 0 3.324 1.528 3.324 3.672 0 2.131-1.42 3.646-3.404 3.646a2.884 2.884 0 01-2.426-1.274v1.1H50.41v-9.69zm3.378 8.913c1.34 0 2.385-1.059 2.385-2.68 0-1.595-.991-2.721-2.358-2.721-1.314 0-2.386.992-2.386 2.72 0 1.461.911 2.681 2.359 2.681zM58.747 32.935v-4.356h1.059v4.396c0 1.112.71 1.783 1.648 1.783 1.073 0 1.81-.791 1.81-1.944V28.58h1.072v6.97h-1.059v-1.006a2.343 2.343 0 01-2.064 1.18c-1.622 0-2.466-1.207-2.466-2.788zM66.507 33.752c.314.675 1 1.097 1.743 1.073.697 0 1.287-.402 1.287-1.113 0-1.608-3.499-1.059-3.499-3.417 0-1.18.979-1.89 2.239-1.89 1.3 0 1.97.817 2.158 1.34l-.778.442a1.488 1.488 0 00-1.447-.898c-.644 0-1.153.362-1.153.965 0 1.568 3.512.979 3.512 3.405 0 1.233-1.02 2.064-2.373 2.064-1.46 0-2.117-.831-2.426-1.488l.737-.483zM72.606 26.06a.73.73 0 11-.724.723c0-.4.324-.724.724-.724zm-.523 2.519h1.059v6.97h-1.059v-6.97zM80.741 31.192v4.356h-1.058v-4.396c0-1.112-.697-1.782-1.649-1.782-1.072 0-1.81.79-1.81 1.943v4.235h-1.058V28.58h1.045v1.005a2.365 2.365 0 012.078-1.18c1.621 0 2.452 1.207 2.452 2.788zM85.633 28.405c2.051 0 3.311 1.474 3.311 3.565 0 .04 0 .188-.013.322h-5.59c.014 1.554 1.06 2.492 2.507 2.492.86.028 1.677-.38 2.171-1.085l.697.51c-.389.656-1.3 1.514-2.882 1.514-2.117 0-3.578-1.488-3.578-3.633 0-2.224 1.528-3.685 3.377-3.685zm2.225 3.096c-.067-1.448-1.072-2.185-2.225-2.185a2.254 2.254 0 00-2.238 2.185h4.463zM90.7 33.752c.313.675.999 1.096 1.742 1.073.697 0 1.287-.402 1.287-1.113 0-1.608-3.498-1.059-3.498-3.417 0-1.18.978-1.89 2.238-1.89 1.3 0 1.97.817 2.158 1.34l-.778.442a1.488 1.488 0 00-1.447-.898c-.643 0-1.153.362-1.153.965 0 1.568 3.512.979 3.512 3.405 0 1.233-1.019 2.064-2.372 2.064-1.461 0-2.118-.831-2.426-1.488l.737-.483zM96.49 33.752c.313.675 1 1.097 1.742 1.073.697 0 1.287-.402 1.287-1.113 0-1.608-3.498-1.059-3.498-3.417 0-1.18.978-1.89 2.238-1.89 1.3 0 1.97.817 2.158 1.34l-.777.442a1.488 1.488 0 00-1.448-.898c-.643 0-1.153.362-1.153.965 0 1.568 3.512.979 3.512 3.405 0 1.233-1.019 2.064-2.372 2.064-1.461 0-2.118-.831-2.426-1.488l.737-.483zM105.67 28.579h1.02v1.099a2.884 2.884 0 012.425-1.273c1.984 0 3.405 1.514 3.405 3.645 0 2.158-1.354 3.673-3.324 3.673a2.883 2.883 0 01-2.466-1.3v3.632h-1.06v-9.476zm3.405 6.179c1.367 0 2.36-1.113 2.36-2.708 0-1.635-1.046-2.68-2.387-2.68-1.447 0-2.358 1.22-2.358 2.68 0 1.716 1.072 2.708 2.385 2.708zM116.313 31.112c.884 0 1.555.335 1.836.63v-.858c0-.978-.657-1.541-1.689-1.541a3.995 3.995 0 00-2.05.603l-.43-.777a4.912 4.912 0 012.574-.764c1.903 0 2.654 1.059 2.654 2.546v4.597h-.912l-.12-.59c-.362.416-.952.765-1.89.765-1.528 0-2.654-.965-2.654-2.319 0-1.327 1.113-2.292 2.68-2.292zm.147 3.726c1.019 0 1.73-.603 1.73-1.447 0-.872-.698-1.435-1.743-1.435-1.059 0-1.742.617-1.742 1.435 0 .804.683 1.447 1.755 1.447zM124.247 29.464c-1.594 0-2.064 1.26-2.064 2.747v3.337h-1.058V28.58h1.045v1.166c.241-.697 1.019-1.34 2.077-1.34v1.059zM126.11 27.118h1.06v1.461h1.527v.898h-1.528v3.592c0 1.3.376 1.608 1.287 1.608.134 0 .295-.013.295-.013v.938c-.213.027-.428.04-.643.04-1.394 0-1.997-.911-1.997-2.48v-3.685h-.818v-.898h.818v-1.46zM135.76 31.192v4.356h-1.058v-4.396c0-1.112-.697-1.782-1.649-1.782-1.072 0-1.81.79-1.81 1.943v4.235h-1.058V28.58h1.046v1.005a2.365 2.365 0 012.077-1.18c1.622 0 2.453 1.207 2.453 2.788zM140.653 28.405c2.05 0 3.31 1.474 3.31 3.565 0 .04 0 .188-.013.322h-5.59c.014 1.554 1.06 2.492 2.507 2.492.86.028 1.677-.38 2.171-1.085l.697.51c-.388.656-1.3 1.514-2.881 1.514-2.118 0-3.579-1.488-3.579-3.633 0-2.224 1.528-3.685 3.378-3.685zm2.225 3.096c-.067-1.448-1.073-2.185-2.225-2.185a2.254 2.254 0 00-2.239 2.185h4.464zM148.627 29.464c-1.594 0-2.064 1.26-2.064 2.747v3.337h-1.058V28.58h1.045v1.166c.241-.697 1.019-1.34 2.077-1.34v1.059z"/></g></g></svg>