<svg width="24" height="24" viewBox="0 0 24 24" xmlns="http://www.w3.org/2000/svg"><g fill="none"><path d="M21.476 4.148a1 1 0 011.048 1.704c-1.74 1.069-3.388 2.475-4.933 4.138a34.318 34.318 0 00-4.245 5.666l-.16.271c-.151.262-.252.445-.3.537a1 1 0 01-1.593.243l-4-4a1 1 0 011.414-1.414l3.078 3.078.026-.04c.125-.206.259-.418.4-.638l.217-.334a36.295 36.295 0 013.697-4.73c1.661-1.788 3.446-3.31 5.351-4.48z" fill="#315BE7"/><path d="M.118 10.33C1.04 3.768 7.108-.804 13.67.118c1.538.216 2.996.72 4.315 1.48a1 1 0 11-.998 1.733 9.968 9.968 0 00-3.595-1.232C7.923 1.33 2.867 5.14 2.099 10.609 1.33 16.076 5.14 21.132 10.609 21.9c5.468.769 10.524-3.041 11.292-8.51a9.988 9.988 0 00-.058-3.167 1 1 0 011.968-.355c.224 1.245.25 2.524.07 3.8-.921 6.563-6.989 11.135-13.55 10.213C3.767 22.96-.805 16.892.117 10.33z" fill="#02C3FF"/></g></svg>