<svg xmlns="http://www.w3.org/2000/svg" xmlns:xlink="http://www.w3.org/1999/xlink" width="1368" height="671" viewBox="0 0 1368 671"><defs><path id="a" d="M0 0h1368v671H0z"/></defs><g fill="none" fill-rule="evenodd"><mask id="b" fill="#fff"><use xlink:href="#a"/></mask><use fill="#315BE7" fill-rule="nonzero" xlink:href="#a"/><g fill-rule="nonzero" mask="url(#b)" opacity=".25"><path stroke="#315BE7" d="M-37.5 551.507c-136.138 0-246.5 110.362-246.5 246.5 0 136.139 110.362 246.5 246.5 246.5S209 934.146 209 798.007c0-136.138-110.362-246.5-246.5-246.5zm0 170.31c42.08 0 76.19 34.111 76.19 76.19 0 42.08-34.11 76.191-76.19 76.191s-76.19-34.111-76.19-76.19c0-42.08 34.11-76.191 76.19-76.191z"/><path fill="#02C3FF" d="M-35.816-462.493c336.85 0 652.938 132.866 887.604 365.4 32.327 32.034 33.69 83.769 3.377 117.454l-1.137 1.239-255.42 272.981c-32.662 34.908-87.524 35.963-121.503 2.647l-1.177-1.176C340.364 157.949 159.725 79.587-35.064 79.587c-196.242 0-378.248 78.408-513.115 216.345-32.846 33.594-86.673 34.167-120.225 1.282-33.553-32.886-34.127-86.778-1.28-120.371C-503.182 6.55-277.55-90.653-35.065-90.653c209.792 0 406.674 73.577 564.313 204.763l2.935 2.46L671.267-32.081l-2.084-1.782C476.367-197.379 232.12-290.176-27.074-292.218l-8.742-.035c-291.768 0-565.162 114.993-768.335 316.497-33.358 33.084-87.188 32.83-120.232-.57-33.044-33.397-32.789-87.292.569-120.376 234.7-232.77 550.953-365.79 887.998-365.79z" opacity=".25"/><path fill="#2545B4" d="M-670.511 176.15c31.44-34.408 84.343-36.987 118.918-6.09l1.227 1.117 200.155 185.852.563-.38c90.93-60.805 198.07-94.525 310.28-95.348l4.21-.015c140.389 0 273.076 51.492 376.32 143.134 35.244 31.283 38.657 85.443 7.624 120.97-30.668 35.11-83.5 38.882-118.753 8.774l-1.251-1.09c-72.483-64.337-165.326-100.366-263.94-100.366-98.636 0-191.497 36.045-263.986 100.407-32.225 28.613-80.463 28.463-112.499-.087l-1.307-1.19-252.63-234.577c-34.538-32.071-36.746-86.295-4.931-121.112z" opacity=".5"/></g><g fill-rule="nonzero" mask="url(#b)" opacity=".15"><path stroke="#315BE7" d="M1402.5 30.507c-136.138 0-246.5-110.362-246.5-246.5s110.362-246.5 246.5-246.5 246.5 110.362 246.5 246.5-110.362 246.5-246.5 246.5zm0-170.31c42.08 0 76.19-34.111 76.19-76.19 0-42.08-34.11-76.191-76.19-76.191s-76.19 34.112-76.19 76.19c0 42.08 34.11 76.192 76.19 76.192z"/><path fill="#02C3FF" d="M1407.184 1046.507c336.85 0 651.938-133.866 886.604-366.4 32.327-32.033 33.69-83.768 3.377-117.453l-1.137-1.24-255.42-272.98c-32.662-34.909-87.524-35.963-121.503-2.648l-1.177 1.176c-135.564 138.103-316.203 216.465-510.992 216.465-196.242 0-378.248-78.408-513.115-216.345-32.846-33.593-86.673-34.167-120.225-1.281-33.553 32.885-34.127 86.777-1.28 120.37 166.503 170.294 392.135 267.496 634.62 267.496 209.792 0 406.674-73.577 564.314-204.762l2.934-2.46 139.083 148.65-2.084 1.782c-192.816 163.517-437.063 256.314-696.257 258.356l-8.742.034c-291.768 0-565.162-114.992-768.335-316.497-33.358-33.083-87.188-32.829-120.232.57-33.044 33.398-32.789 87.292.569 120.376 234.7 232.771 551.953 366.79 888.998 366.79z" opacity=".5"/><path fill="#2545B4" d="M769.489 405.865c31.44 34.408 84.343 36.986 118.918 6.09l1.227-1.118 200.155-185.852.563.38c90.93 60.805 198.07 94.525 310.28 95.348l4.21.016c140.389 0 273.076-51.493 376.32-143.135 35.244-31.283 38.657-85.443 7.624-120.97-30.668-35.109-83.5-38.882-118.753-8.774l-1.251 1.09c-72.483 64.337-165.326 100.367-263.94 100.367-98.636 0-191.497-36.045-263.986-100.408-32.225-28.612-80.463-28.462-112.499.088l-1.307 1.19-252.63 234.577c-34.538 32.07-36.746 86.294-4.931 121.111z"/></g></g></svg>