<svg width="24" height="24" viewBox="0 0 24 24" xmlns="http://www.w3.org/2000/svg"><g fill="none"><circle cx="12" cy="12" r="11" stroke="#02C3FF" stroke-width="2"></circle><path fill="#FFF" d="M2.5 3C3.33001562 3 4 2.33001562 4 1.5 4 .669984375 3.33001562 0 2.5 0 1.66998438 0 1 .669984375 1 1.5 1 2.33001562 1.66998437 3 2.5 3zM9.5 3C10.3300156 3 11 2.33001562 11 1.5 11 .669984375 10.3300156 0 9.5 0 8.66998438 0 8 .669984375 8 1.5 8 2.33001562 8.66998438 3 9.5 3zM.751873308 6.46984257C2.50124887 7.48994752 4.25062444 8 6 8 7.74935979 8 9.49871959 7.48995672 11.2480794 6.46987016 11.4866261 6.33070646 11.7928051 6.41133202 11.9319222 6.64990584 11.9765076 6.72636588 12 6.81328987 12 6.90179972L12 7.4530382C11.9999903 7.80073852 11.8193805 8.12347959 11.5230321 8.30533979 9.68202141 9.43511326 7.84101071 10 6 10 4.15898982 10 2.31797963 9.43511358.476969448 8.30534075.180612747 8.12348318 4.25817053e-17 7.80073684 0 7.45303083L0 6.90177951C-.00000968165951 6.62563178.223852278 6.40176982.5 6.40176982.58850269 6.40176982.675419627 6.4252605.751873308 6.46984257z" transform="translate(6 8)"></path></g></svg>